<svg width="172" height="66" viewBox="0 0 172 66" fill="none" xmlns="http://www.w3.org/2000/svg">
<path d="M2.305 0.774998C2.74833 0.774998 3.145 0.891665 3.495 1.125C3.86833 1.35833 4.09 1.76667 4.16 2.35C4.44 4.19333 4.615 6.03667 4.685 7.88C4.77833 9.7 4.825 11.765 4.825 14.075C4.825 15.055 4.74333 16.84 4.58 19.43C5.60667 19.5233 6.4 19.57 6.96 19.57C7.35667 19.57 8.255 19.5117 9.655 19.395C10.4717 19.2783 11.1833 19.22 11.79 19.22C12.35 19.22 12.8633 19.2783 13.33 19.395C13.7967 19.4883 14.275 19.6517 14.765 19.885C15.255 20.165 15.5 20.5967 15.5 21.18C15.5 21.6467 15.3483 22.0667 15.045 22.44C14.765 22.8133 14.4267 23 14.03 23C13.75 23 13.3067 22.9533 12.7 22.86C11.6033 22.6967 10.5533 22.615 9.55 22.615C9.22333 22.615 8.85 22.6383 8.43 22.685C8.03333 22.7083 7.74167 22.72 7.555 22.72C6.995 22.79 6.435 22.825 5.875 22.825C4.73167 22.825 3.705 22.7667 2.795 22.65C2.32833 22.6033 1.86167 22.4283 1.395 22.125C0.928334 21.7983 0.695 21.3317 0.695 20.725C0.695 20.375 0.741667 19.4767 0.835 18.03C0.998333 15.6267 1.08 13.795 1.08 12.535C1.08 11.555 1.03333 10.5283 0.94 9.455C0.846667 8.38167 0.788334 7.705 0.765 7.425C0.555 5.44167 0.45 3.80833 0.45 2.525C0.45 1.91833 0.59 1.475 0.87 1.195C1.17333 0.914999 1.65167 0.774998 2.305 0.774998ZM16.5533 11.205C16.3666 11.205 16.1916 11.135 16.0283 10.995C15.8883 10.8317 15.8183 10.645 15.8183 10.435C15.8183 9.89833 16.0516 9.39667 16.5183 8.93C16.6583 8.86 16.9383 8.74333 17.3583 8.58C17.7783 8.41667 18.1516 8.335 18.4783 8.335C19.3649 8.335 20.0883 8.58 20.6483 9.07C21.2083 9.53667 21.4883 10.2133 21.4883 11.1C21.4883 11.3567 21.4416 11.905 21.3483 12.745C21.2549 13.725 21.2083 14.4833 21.2083 15.02C21.2083 16.6533 21.4299 17.9717 21.8733 18.975C22.0366 19.3017 22.2933 19.5583 22.6433 19.745C22.9933 19.9317 23.3083 20.025 23.5883 20.025C24.2649 20.025 24.8133 19.9083 25.2333 19.675C25.6533 19.4417 26.1083 19.0683 26.5983 18.555C27.0883 18.0417 27.4033 17.4583 27.5433 16.805C27.7066 16.1517 27.8233 15.2533 27.8933 14.11C27.9399 13.3633 27.9866 12.815 28.0333 12.465C28.1499 11.345 28.2083 10.3883 28.2083 9.595C28.2083 9.08167 28.3483 8.66167 28.6283 8.335C28.9083 7.985 29.2933 7.81 29.7833 7.81C30.0633 7.81 30.3783 7.90333 30.7283 8.09C31.1016 8.25333 31.3466 8.45167 31.4633 8.685C31.6033 8.91833 31.6733 9.30333 31.6733 9.84C31.6733 10.12 31.6383 10.3883 31.5683 10.645C31.4049 11.2283 31.3233 11.9283 31.3233 12.745L31.3583 14.565C31.3583 16.2217 31.4749 17.4467 31.7083 18.24C31.8249 18.6133 31.9883 18.9983 32.1983 19.395C32.4083 19.7683 32.6066 20.0833 32.7933 20.34C33.2599 20.8533 33.5633 21.215 33.7033 21.425C33.8433 21.6117 33.9133 21.7983 33.9133 21.985C33.9133 22.265 33.7733 22.5333 33.4933 22.79C33.2366 23.0233 32.9566 23.14 32.6533 23.14C31.7899 23.14 31.0433 22.8483 30.4133 22.265C29.7833 21.6817 29.3166 20.9233 29.0133 19.99C28.2199 20.9 27.4849 21.635 26.8083 22.195C26.3416 22.5217 25.7699 22.7667 25.0933 22.93C24.4166 23.07 23.7399 23.14 23.0633 23.14C22.1533 23.14 21.2316 22.7667 20.2983 22.02C19.3649 21.2733 18.7349 20.41 18.4083 19.43C18.3849 19.3833 18.3149 19.1967 18.1983 18.87C18.1049 18.5433 18.0583 18.0533 18.0583 17.4C18.0583 16.5367 18.1049 15.4517 18.1983 14.145C18.2683 13.305 18.3033 12.535 18.3033 11.835C18.3033 11.625 18.2216 11.45 18.0583 11.31C17.9183 11.17 17.7549 11.1 17.5683 11.1C17.4283 11.1 17.2649 11.1233 17.0783 11.17C16.9149 11.1933 16.7399 11.205 16.5533 11.205ZM48.394 7.565C48.8607 7.565 49.2223 7.68167 49.479 7.915C49.759 8.125 49.899 8.39333 49.899 8.72C49.899 8.95333 49.8523 9.19833 49.759 9.455C49.689 9.68833 49.6073 9.93333 49.514 10.19C48.9773 11.45 47.8457 13.2117 46.119 15.475C47.8923 17.7617 49.3273 19.2317 50.424 19.885C50.5173 19.9317 50.6923 20.0133 50.949 20.13C51.2057 20.2467 51.404 20.3867 51.544 20.55C51.7073 20.7133 51.789 20.9 51.789 21.11C51.789 21.6233 51.5907 22.0433 51.194 22.37C50.8207 22.6733 50.3657 22.825 49.829 22.825C48.919 22.825 47.9273 22.3233 46.854 21.32C45.7807 20.2933 44.8707 19.22 44.124 18.1C43.5873 18.9167 42.969 19.7333 42.269 20.55C41.5923 21.3433 40.9623 22.02 40.379 22.58C40.1457 22.8367 39.8657 23.035 39.539 23.175C39.2357 23.315 38.9323 23.385 38.629 23.385C38.209 23.385 37.8357 23.2917 37.509 23.105C37.1823 22.9183 37.019 22.5917 37.019 22.125C37.019 22.0083 37.1007 21.8217 37.264 21.565C37.4273 21.285 37.5207 21.1217 37.544 21.075C37.824 20.585 38.1973 20.0833 38.664 19.57C39.1307 19.0333 39.4223 18.695 39.539 18.555C39.819 18.205 40.1223 17.8667 40.449 17.54C40.6357 17.33 40.9157 17.0033 41.289 16.56C41.6623 16.1167 41.919 15.7667 42.059 15.51L40.834 13.83C40.2507 13.1533 39.749 12.6167 39.329 12.22C38.909 11.8 38.5707 11.59 38.314 11.59C37.9407 11.59 37.5907 11.695 37.264 11.905C36.984 12.0917 36.704 12.185 36.424 12.185C36.1207 12.185 35.8873 12.115 35.724 11.975C35.5607 11.8117 35.479 11.6367 35.479 11.45C35.479 10.6567 35.794 9.98 36.424 9.42C37.054 8.83667 37.8473 8.545 38.804 8.545C39.714 8.545 40.519 8.86 41.219 9.49C41.9423 10.0967 42.654 10.9133 43.354 11.94C43.4473 12.0333 43.5523 12.185 43.669 12.395C43.7857 12.605 43.9023 12.78 44.019 12.92C44.2757 12.5467 44.7423 11.8233 45.419 10.75C46.1423 9.46667 46.574 8.73167 46.714 8.545C47.204 7.89167 47.764 7.565 48.394 7.565ZM53.5431 14.985C53.5431 13.5617 53.8581 12.3833 54.4881 11.45C55.1181 10.4933 55.9931 9.595 57.1131 8.755C57.4398 8.52167 57.9881 8.32333 58.7581 8.16C59.5281 7.97333 60.2048 7.88 60.7881 7.88C61.4881 7.88 62.2231 8.03167 62.9931 8.335C63.7864 8.615 64.4281 8.94167 64.9181 9.315C65.7814 9.945 66.3764 10.68 66.7031 11.52C67.0298 12.3367 67.1931 13.3167 67.1931 14.46C67.1931 14.95 66.9131 15.4283 66.3531 15.895C65.8164 16.3383 65.2331 16.56 64.6031 16.56L63.2731 16.525C62.5964 16.525 61.6281 16.5483 60.3681 16.595L59.6331 16.63C59.1198 16.6767 58.7348 16.7 58.4781 16.7C58.1048 16.7 57.5914 16.6533 56.9381 16.56C57.0314 17.6567 57.4398 18.52 58.1631 19.15C58.8864 19.7567 59.6681 20.06 60.5081 20.06C61.9781 20.06 63.0048 19.7683 63.5881 19.185C64.0781 18.835 64.4048 18.6133 64.5681 18.52C64.7314 18.4267 64.9881 18.38 65.3381 18.38C65.7114 18.38 66.0381 18.555 66.3181 18.905C66.5981 19.255 66.7381 19.605 66.7381 19.955C66.7381 20.3517 66.4931 20.76 66.0031 21.18C65.5364 21.5767 64.8948 21.9967 64.0781 22.44C63.6348 22.6267 63.0281 22.79 62.2581 22.93C61.4881 23.07 60.8464 23.14 60.3331 23.14C59.5164 23.14 58.6064 22.9067 57.6031 22.44C56.5998 21.95 55.8531 21.4133 55.3631 20.83C54.8731 20.2467 54.4414 19.4183 54.0681 18.345C53.7181 17.2717 53.5431 16.1517 53.5431 14.985ZM60.5081 14.04C62.1648 14.04 63.3781 13.9817 64.1481 13.865C64.1014 13.1883 63.8914 12.64 63.5181 12.22C63.1448 11.7767 62.6314 11.4033 61.9781 11.1C61.7681 11.0067 61.5814 10.9367 61.4181 10.89C61.2548 10.8433 61.0681 10.82 60.8581 10.82C59.7848 10.82 58.8748 11.1117 58.1281 11.695C57.4048 12.2783 56.9731 13.025 56.8331 13.935C57.9998 14.005 59.2248 14.04 60.5081 14.04ZM69.8993 60.24C70.3426 60.24 70.6693 60.415 70.8793 60.765C71.1126 61.0917 71.2293 61.4533 71.2293 61.85C71.2293 62.34 71.1476 62.69 70.9843 62.9C70.8443 63.0867 70.5643 63.285 70.1443 63.495C69.1643 63.9617 67.951 64.335 66.5043 64.615C65.0576 64.895 63.506 65.035 61.8493 65.035C59.7726 65.035 58.2443 64.685 57.2643 63.985C56.3076 63.285 55.7126 62.445 55.4793 61.465C55.2693 60.4617 55.1643 59.155 55.1643 57.545C55.1643 55.8183 55.2343 54.1267 55.3743 52.47C55.5143 50.79 55.7593 48.655 56.1093 46.065C56.2726 44.945 56.716 44.14 57.4393 43.65C58.1626 43.1367 58.956 42.88 59.8193 42.88C60.5426 42.88 61.721 42.8567 63.3543 42.81L66.3993 42.775C67.6593 42.775 68.5693 42.81 69.1293 42.88C69.8293 43.02 70.3426 43.1833 70.6693 43.37C71.0193 43.5333 71.1943 43.825 71.1943 44.245C71.1943 44.7117 71.031 45.1667 70.7043 45.61C70.401 46.0533 69.9343 46.275 69.3043 46.275C68.581 46.275 67.5426 46.2283 66.1893 46.135C64.836 46.0417 63.821 45.995 63.1443 45.995C62.561 45.995 61.9893 46.03 61.4293 46.1C60.776 46.1467 60.3093 46.2283 60.0293 46.345C59.7493 46.4617 59.586 46.66 59.5393 46.94C59.2126 49.3433 59.0493 51.1167 59.0493 52.26C59.586 52.33 60.111 52.365 60.6243 52.365C61.2776 52.365 61.9776 52.33 62.7243 52.26C63.471 52.19 63.9493 52.1433 64.1593 52.12C65.396 52.0033 66.4576 51.945 67.3443 51.945C67.8576 51.945 68.2426 52.0383 68.4993 52.225C68.7793 52.4117 68.9193 52.6683 68.9193 52.995C68.9193 53.5083 68.7793 53.905 68.4993 54.185C68.2426 54.465 67.776 54.675 67.0993 54.815C66.2826 54.9783 65.2676 55.1067 64.0543 55.2C62.8643 55.2933 61.6976 55.34 60.5543 55.34C60.1576 55.34 59.6093 55.3167 58.9093 55.27C58.8393 56.6933 58.8043 58.0117 58.8043 59.225C58.8043 60.8817 59.901 61.71 62.0943 61.71C63.261 61.71 64.2293 61.6283 64.9993 61.465C65.7693 61.3017 66.656 61.0683 67.6593 60.765C68.5926 60.415 69.3393 60.24 69.8993 60.24ZM83.9958 57.125C84.1825 57.2417 84.5442 57.4633 85.0808 57.79C85.6408 58.0933 86.0142 58.455 86.2008 58.875C86.3875 59.295 86.4808 59.8783 86.4808 60.625C86.4808 61.465 86.2358 62.2117 85.7458 62.865C85.2558 63.495 84.6258 63.985 83.8558 64.335C83.2958 64.5917 82.6075 64.79 81.7908 64.93C80.9975 65.07 80.3675 65.14 79.9008 65.14C79.4342 65.14 78.8275 65.07 78.0808 64.93C77.3575 64.79 76.8558 64.6617 76.5758 64.545C75.8525 64.125 75.2225 63.6117 74.6858 63.005C74.1725 62.3983 73.9158 61.78 73.9158 61.15C73.9158 60.6833 74.0675 60.3217 74.3708 60.065C74.6742 59.785 75.0708 59.645 75.5608 59.645C75.7942 59.645 76.0392 59.7383 76.2958 59.925C76.5525 60.0883 76.7275 60.2633 76.8208 60.45C77.0775 61.0567 77.5092 61.5117 78.1158 61.815C78.7225 62.1183 79.3408 62.27 79.9708 62.27C80.7875 62.27 81.5458 62.1417 82.2458 61.885C82.9458 61.605 83.2958 61.2317 83.2958 60.765C83.2958 60.555 83.2375 60.3917 83.1208 60.275C83.0275 60.135 82.8875 59.995 82.7008 59.855C82.3742 59.6217 81.8842 59.435 81.2308 59.295C80.5775 59.1317 80.1575 59.0267 79.9708 58.98C79.0142 58.77 78.0808 58.455 77.1708 58.035C76.2608 57.5917 75.5375 57.0667 75.0008 56.46C74.4642 55.8533 74.1958 55.0717 74.1958 54.115C74.1958 53.485 74.4292 52.8317 74.8958 52.155C75.3625 51.455 75.8875 50.965 76.4708 50.685C76.8908 50.5217 77.5908 50.3467 78.5708 50.16C79.5742 49.9733 80.2508 49.88 80.6008 49.88C81.1375 49.88 81.7208 49.9383 82.3508 50.055C82.9808 50.1483 83.4592 50.3117 83.7858 50.545C84.4158 50.9183 84.9292 51.315 85.3258 51.735C85.7225 52.1317 85.9208 52.5867 85.9208 53.1C85.9208 53.3567 85.8625 53.6367 85.7458 53.94C85.6292 54.22 85.4892 54.395 85.3258 54.465C84.9758 54.6283 84.5675 54.71 84.1008 54.71C83.8908 54.71 83.7158 54.6517 83.5758 54.535C83.4592 54.4183 83.2958 54.2317 83.0858 53.975C82.8292 53.5783 82.5842 53.345 82.3508 53.275C82.0708 53.205 81.6625 53.1233 81.1258 53.03C80.5892 52.9133 80.2275 52.855 80.0408 52.855C79.5042 52.855 78.9442 53.0067 78.3608 53.31C77.8008 53.6133 77.5208 53.9633 77.5208 54.36C77.5208 54.57 77.6025 54.7333 77.7658 54.85C77.9525 54.9667 78.1392 55.0717 78.3258 55.165C78.5358 55.2583 78.6758 55.3167 78.7458 55.34C79.2358 55.5733 79.7725 55.7717 80.3558 55.935C80.9625 56.0983 81.3358 56.2033 81.4758 56.25C82.7358 56.5533 83.5758 56.845 83.9958 57.125ZM99.5818 57.44C99.7684 57.5567 100.13 57.7783 100.667 58.105C101.227 58.4083 101.6 58.77 101.787 59.19C101.973 59.61 102.067 60.1933 102.067 60.94C102.067 61.78 101.822 62.5267 101.332 63.18C100.842 63.81 100.212 64.3 99.4418 64.65C98.9051 64.8833 98.3218 65.0233 97.6918 65.07C97.0851 65.1167 96.3501 65.14 95.4868 65.14C95.0201 65.14 94.4134 65.07 93.6668 64.93C92.9434 64.79 92.4418 64.6617 92.1618 64.545C91.4151 64.125 90.7851 63.635 90.2718 63.075C89.7584 62.515 89.5018 61.9433 89.5018 61.36C89.5018 60.8933 89.6534 60.52 89.9568 60.24C90.2601 59.96 90.6568 59.82 91.1468 59.82C91.4034 59.82 91.6484 59.89 91.8818 60.03C92.1384 60.1467 92.3134 60.2867 92.4068 60.45C92.6634 61.0567 93.0951 61.5117 93.7018 61.815C94.3084 62.1183 94.9268 62.27 95.5568 62.27C97.7734 62.27 98.8818 61.8733 98.8818 61.08C98.8818 60.87 98.8234 60.7067 98.7068 60.59C98.6134 60.45 98.4734 60.31 98.2868 60.17C97.9834 59.96 97.5518 59.7383 96.9918 59.505C96.4551 59.2717 95.9768 59.0967 95.5568 58.98C94.6001 58.77 93.6668 58.455 92.7568 58.035C91.9168 57.615 91.2284 57.0667 90.6918 56.39C90.1551 55.69 89.8868 54.8383 89.8868 53.835C89.8868 53.2283 90.1084 52.6333 90.5518 52.05C91.0184 51.4433 91.5551 50.9883 92.1618 50.685C92.5818 50.5217 93.2701 50.3467 94.2268 50.16C95.1834 49.9733 95.8368 49.88 96.1868 49.88C96.7234 49.88 97.3068 49.9383 97.9368 50.055C98.5668 50.1483 99.0451 50.3117 99.3718 50.545C100.002 50.9183 100.515 51.315 100.912 51.735C101.308 52.1317 101.507 52.5867 101.507 53.1C101.507 53.3567 101.448 53.6367 101.332 53.94C101.215 54.22 101.075 54.395 100.912 54.465C100.562 54.6283 100.153 54.71 99.6868 54.71C99.4768 54.71 99.3018 54.6517 99.1618 54.535C99.0451 54.4183 98.8818 54.2317 98.6718 53.975C98.4151 53.5783 98.1701 53.345 97.9368 53.275C97.6568 53.205 97.2484 53.1233 96.7118 53.03C96.1751 52.9133 95.8134 52.855 95.6268 52.855C95.0434 52.855 94.4834 52.9717 93.9468 53.205C93.4334 53.4383 93.1768 53.7533 93.1768 54.15C93.1768 54.6167 93.5618 55.0133 94.3318 55.34C94.8218 55.5733 95.3584 55.7717 95.9418 55.935C96.5484 56.0983 96.9218 56.2033 97.0618 56.25C97.3884 56.32 97.8084 56.4833 98.3218 56.74C98.8584 56.9967 99.2784 57.23 99.5818 57.44ZM105.088 57.58C105.088 56.6933 105.251 55.8067 105.578 54.92C105.904 54.01 106.336 53.1817 106.873 52.435C107.409 51.6883 108.261 51.0817 109.428 50.615C110.594 50.125 111.633 49.88 112.543 49.88C113.476 49.88 114.421 50.0083 115.378 50.265C116.358 50.5217 117.034 50.9183 117.408 51.455C118.271 52.6683 118.703 53.8583 118.703 55.025C118.703 55.655 118.563 56.1917 118.283 56.635C118.026 57.0783 117.653 57.5567 117.163 58.07C116.766 58.49 116.136 58.77 115.273 58.91C114.433 59.05 113.593 59.12 112.753 59.12C112.216 59.12 111.563 59.0733 110.793 58.98C110.023 58.8633 109.276 58.7233 108.553 58.56C108.599 59.0267 108.716 59.4817 108.903 59.925C109.089 60.3683 109.311 60.7067 109.568 60.94C110.034 61.3833 110.513 61.6633 111.003 61.78C111.516 61.8967 112.169 61.955 112.963 61.955C113.803 61.955 114.584 61.815 115.308 61.535C115.891 61.325 116.369 61.22 116.743 61.22C117.186 61.22 117.524 61.36 117.758 61.64C117.991 61.8967 118.108 62.235 118.108 62.655C118.108 63.2383 117.769 63.7167 117.093 64.09C116.416 64.4633 115.634 64.7433 114.748 64.93C113.884 65.0933 113.184 65.175 112.648 65.175C111.551 65.175 110.489 64.9767 109.463 64.58C108.436 64.1833 107.584 63.6233 106.908 62.9C106.348 62.2467 105.904 61.465 105.578 60.555C105.251 59.6217 105.088 58.63 105.088 57.58ZM112.718 52.855C112.204 52.855 111.691 52.96 111.178 53.17C110.664 53.3567 110.244 53.625 109.918 53.975C109.498 54.4183 109.206 54.78 109.043 55.06C108.903 55.3167 108.809 55.6783 108.763 56.145C109.346 56.3317 110.559 56.425 112.403 56.425C113.406 56.425 114.176 56.2733 114.713 55.97C115.273 55.6667 115.553 55.27 115.553 54.78C115.553 54.29 115.249 53.8467 114.643 53.45C114.036 53.0533 113.394 52.855 112.718 52.855ZM138.007 62.305C138.124 62.3517 138.311 62.41 138.567 62.48C138.824 62.55 139.011 62.62 139.127 62.69C139.244 62.76 139.302 62.865 139.302 63.005C139.326 63.565 139.116 64.0317 138.672 64.405C138.252 64.755 137.751 64.93 137.167 64.93C136.257 64.93 135.546 64.685 135.032 64.195C134.519 63.705 134.146 62.9583 133.912 61.955C133.819 61.5583 133.772 61.01 133.772 60.31C133.772 59.9133 133.796 59.2717 133.842 58.385C133.889 57.4517 133.912 56.705 133.912 56.145C133.912 55.1417 133.807 54.3833 133.597 53.87C133.387 53.3333 132.886 53.065 132.092 53.065C131.276 53.065 130.541 53.3917 129.887 54.045C129.257 54.6983 128.721 55.6783 128.277 56.985C127.671 58.805 127.332 61.22 127.262 64.23C127.262 64.3933 127.087 64.5917 126.737 64.825C126.411 65.035 126.014 65.14 125.547 65.14C124.684 65.14 124.147 64.685 123.937 63.775L123.902 63.18C123.902 62.97 123.926 62.725 123.972 62.445C124.252 60.8117 124.392 59.3883 124.392 58.175C124.392 57.6383 124.381 57.2183 124.357 56.915L124.322 55.27C124.322 54.71 124.182 54.1733 123.902 53.66C123.622 53.1233 123.296 52.855 122.922 52.855C122.806 52.855 122.642 52.9017 122.432 52.995C122.222 53.065 122.047 53.1 121.907 53.1C121.674 53.1 121.417 52.9833 121.137 52.75C120.881 52.5167 120.752 52.2717 120.752 52.015C120.752 51.525 120.916 51.1283 121.242 50.825C121.592 50.545 121.931 50.3233 122.257 50.16C122.607 49.9967 123.004 49.915 123.447 49.915C123.821 49.915 124.124 49.95 124.357 50.02C124.591 50.09 124.906 50.2417 125.302 50.475C125.536 50.5917 125.804 50.9183 126.107 51.455C126.411 51.9917 126.644 52.75 126.807 53.73C127.274 52.8667 128.056 51.9567 129.152 51C129.969 50.2533 131.147 49.88 132.687 49.88C134.087 49.88 135.196 50.3933 136.012 51.42C136.829 52.4233 137.237 53.8117 137.237 55.585C137.237 55.935 137.214 56.5067 137.167 57.3C137.097 57.93 137.062 58.595 137.062 59.295C137.062 60.9283 137.377 61.9317 138.007 62.305ZM154.331 53.31C154.331 54.3367 153.806 54.85 152.756 54.85C152.406 54.85 152.114 54.7683 151.881 54.605C151.647 54.4417 151.391 54.1967 151.111 53.87C150.411 53.1 149.804 52.715 149.291 52.715C148.614 52.715 147.949 52.9133 147.296 53.31C146.666 53.7067 146.152 54.2667 145.756 54.99C145.359 55.7133 145.161 56.5183 145.161 57.405C145.161 58.385 145.347 59.2017 145.721 59.855C146.117 60.5083 146.724 61.0683 147.541 61.535C147.844 61.6983 148.194 61.8267 148.591 61.92C149.011 62.0133 149.372 62.06 149.676 62.06C150.352 62.06 151.204 61.7917 152.231 61.255C152.604 61.0683 152.919 60.9283 153.176 60.835C153.432 60.7417 153.701 60.695 153.981 60.695C154.237 60.695 154.529 60.8117 154.856 61.045C155.182 61.2783 155.346 61.57 155.346 61.92C155.346 62.62 155.019 63.215 154.366 63.705C153.712 64.1717 152.907 64.5333 151.951 64.79C151.017 65.0233 150.119 65.14 149.256 65.14C147.879 65.14 146.596 64.825 145.406 64.195C144.239 63.565 143.306 62.7017 142.606 61.605C141.906 60.485 141.556 59.225 141.556 57.825C141.556 56.3317 141.894 54.9667 142.571 53.73C143.247 52.4933 144.157 51.525 145.301 50.825C146.444 50.125 147.692 49.775 149.046 49.775C149.816 49.775 150.609 49.915 151.426 50.195C152.242 50.475 152.931 50.8833 153.491 51.42C154.051 51.9567 154.331 52.5867 154.331 53.31ZM157.962 56.985C157.962 55.5617 158.277 54.3833 158.907 53.45C159.537 52.4933 160.412 51.595 161.532 50.755C161.859 50.5217 162.407 50.3233 163.177 50.16C163.947 49.9733 164.624 49.88 165.207 49.88C165.907 49.88 166.642 50.0317 167.412 50.335C168.205 50.615 168.847 50.9417 169.337 51.315C170.2 51.945 170.795 52.68 171.122 53.52C171.449 54.3367 171.612 55.3167 171.612 56.46C171.612 56.95 171.332 57.4283 170.772 57.895C170.235 58.3383 169.652 58.56 169.022 58.56L167.692 58.525C167.015 58.525 166.047 58.5483 164.787 58.595L164.052 58.63C163.539 58.6767 163.154 58.7 162.897 58.7C162.524 58.7 162.01 58.6533 161.357 58.56C161.45 59.6567 161.859 60.52 162.582 61.15C163.305 61.7567 164.087 62.06 164.927 62.06C166.397 62.06 167.424 61.7683 168.007 61.185C168.497 60.835 168.824 60.6133 168.987 60.52C169.15 60.4267 169.407 60.38 169.757 60.38C170.13 60.38 170.457 60.555 170.737 60.905C171.017 61.255 171.157 61.605 171.157 61.955C171.157 62.3517 170.912 62.76 170.422 63.18C169.955 63.5767 169.314 63.9967 168.497 64.44C168.054 64.6267 167.447 64.79 166.677 64.93C165.907 65.07 165.265 65.14 164.752 65.14C163.935 65.14 163.025 64.9067 162.022 64.44C161.019 63.95 160.272 63.4133 159.782 62.83C159.292 62.2467 158.86 61.4183 158.487 60.345C158.137 59.2717 157.962 58.1517 157.962 56.985ZM164.927 56.04C166.584 56.04 167.797 55.9817 168.567 55.865C168.52 55.1883 168.31 54.64 167.937 54.22C167.564 53.7767 167.05 53.4033 166.397 53.1C166.187 53.0067 166 52.9367 165.837 52.89C165.674 52.8433 165.487 52.82 165.277 52.82C164.204 52.82 163.294 53.1117 162.547 53.695C161.824 54.2783 161.392 55.025 161.252 55.935C162.419 56.005 163.644 56.04 164.927 56.04Z" fill="black"/>
</svg>
